<svg width="261" height="60" viewBox="0 0 261 60" fill="none" xmlns="http://www.w3.org/2000/svg">
<path d="M38.7734 30.5859L37.6172 30.2891L38.1875 24.625H44.0234V25.9609H39.4141L39.0703 29.0547C39.2786 28.9349 39.5417 28.8229 39.8594 28.7188C40.1823 28.6146 40.5521 28.5625 40.9688 28.5625C41.4948 28.5625 41.9661 28.6536 42.3828 28.8359C42.7995 29.013 43.1536 29.2682 43.4453 29.6016C43.7422 29.9349 43.9688 30.3359 44.125 30.8047C44.2812 31.2734 44.3594 31.7969 44.3594 32.375C44.3594 32.9219 44.2839 33.4245 44.1328 33.8828C43.987 34.3411 43.7656 34.7422 43.4688 35.0859C43.1719 35.4245 42.7969 35.6875 42.3438 35.875C41.8958 36.0625 41.3672 36.1562 40.7578 36.1562C40.2995 36.1562 39.8646 36.0938 39.4531 35.9688C39.0469 35.8385 38.6823 35.6432 38.3594 35.3828C38.0417 35.1172 37.7812 34.7891 37.5781 34.3984C37.3802 34.0026 37.2552 33.5391 37.2031 33.0078H38.5781C38.6406 33.4349 38.7656 33.7943 38.9531 34.0859C39.1406 34.3776 39.3854 34.599 39.6875 34.75C39.9948 34.8958 40.3516 34.9688 40.7578 34.9688C41.1016 34.9688 41.4062 34.9089 41.6719 34.7891C41.9375 34.6693 42.1615 34.4974 42.3438 34.2734C42.526 34.0495 42.6641 33.7786 42.7578 33.4609C42.8568 33.1432 42.9062 32.7865 42.9062 32.3906C42.9062 32.0312 42.8568 31.6979 42.7578 31.3906C42.6589 31.0833 42.5104 30.8151 42.3125 30.5859C42.1198 30.3568 41.8828 30.1797 41.6016 30.0547C41.3203 29.9245 40.9974 29.8594 40.6328 29.8594C40.1484 29.8594 39.7812 29.9245 39.5312 30.0547C39.2865 30.1849 39.0339 30.362 38.7734 30.5859ZM60.0891 31.9219V32.0859C60.0891 32.6797 60.024 33.2266 59.8938 33.7266C59.7635 34.2214 59.5682 34.651 59.3078 35.0156C59.0526 35.3802 58.7349 35.6641 58.3547 35.8672C57.9745 36.0651 57.5344 36.1641 57.0344 36.1641C56.6229 36.1641 56.2609 36.1094 55.9484 36C55.6359 35.8854 55.3703 35.7214 55.1516 35.5078C54.938 35.2943 54.7661 35.0391 54.6359 34.7422C54.5109 34.4401 54.425 34.1016 54.3781 33.7266V29.9766C54.425 29.5755 54.5109 29.2161 54.6359 28.8984C54.7661 28.5807 54.938 28.3099 55.1516 28.0859C55.3703 27.862 55.6333 27.6901 55.9406 27.5703C56.2479 27.4505 56.6073 27.3906 57.0188 27.3906C57.425 27.3906 57.7896 27.4635 58.1125 27.6094C58.4406 27.75 58.7271 27.9531 58.9719 28.2188C59.2219 28.4844 59.4276 28.8047 59.5891 29.1797C59.7557 29.5495 59.8807 29.9661 59.9641 30.4297C60.0474 30.8932 60.0891 31.3906 60.0891 31.9219ZM58.6438 32.0859V31.9219C58.6438 31.5573 58.6177 31.2109 58.5656 30.8828C58.5188 30.5495 58.4432 30.2448 58.3391 29.9688C58.2401 29.6875 58.1099 29.4427 57.9484 29.2344C57.787 29.026 57.5917 28.8646 57.3625 28.75C57.1385 28.6354 56.8807 28.5781 56.5891 28.5781C56.2766 28.5781 56.0161 28.6172 55.8078 28.6953C55.6047 28.7734 55.4458 28.8776 55.3313 29.0078C55.2167 29.1328 55.1333 29.2656 55.0813 29.4062V34.3047C55.1438 34.4193 55.2349 34.5286 55.3547 34.6328C55.4745 34.7318 55.6359 34.8151 55.8391 34.8828C56.0422 34.9453 56.2974 34.9766 56.6047 34.9766C56.9693 34.9766 57.2792 34.9036 57.5344 34.7578C57.7948 34.6068 58.0057 34.3984 58.1672 34.1328C58.3339 33.8672 58.4536 33.5599 58.5266 33.2109C58.6047 32.862 58.6438 32.487 58.6438 32.0859ZM50.05 32.0859V31.9219C50.05 31.3906 50.0917 30.8932 50.175 30.4297C50.2583 29.9661 50.3833 29.5495 50.55 29.1797C50.7167 28.8047 50.9224 28.4844 51.1672 28.2188C51.4172 27.9531 51.7036 27.75 52.0266 27.6094C52.3547 27.4635 52.7219 27.3906 53.1281 27.3906C53.5292 27.3906 53.8781 27.4505 54.175 27.5703C54.4771 27.6901 54.7323 27.862 54.9406 28.0859C55.149 28.3099 55.3156 28.5807 55.4406 28.8984C55.5656 29.2161 55.6542 29.5755 55.7063 29.9766V33.5781C55.6594 33.974 55.5734 34.3307 55.4484 34.6484C55.3234 34.9661 55.1568 35.2396 54.9484 35.4688C54.7401 35.6927 54.4823 35.8646 54.175 35.9844C53.8729 36.1042 53.5188 36.1641 53.1125 36.1641C52.6125 36.1641 52.1724 36.0651 51.7922 35.8672C51.412 35.6641 51.0917 35.3802 50.8313 35.0156C50.576 34.651 50.3807 34.2214 50.2453 33.7266C50.1151 33.2266 50.05 32.6797 50.05 32.0859ZM51.5031 31.9219V32.0859C51.5031 32.487 51.537 32.862 51.6047 33.2109C51.6776 33.5599 51.7896 33.8672 51.9406 34.1328C52.0969 34.3984 52.3 34.6068 52.55 34.7578C52.8 34.9036 53.1073 34.9766 53.4719 34.9766C53.7844 34.9766 54.0422 34.9375 54.2453 34.8594C54.4484 34.7812 54.6099 34.6797 54.7297 34.5547C54.8495 34.4297 54.9406 34.2995 55.0031 34.1641V29.4062C54.951 29.2656 54.8651 29.1328 54.7453 29.0078C54.6307 28.8776 54.4719 28.7734 54.2688 28.6953C54.0656 28.6172 53.8052 28.5781 53.4875 28.5781C53.1229 28.5781 52.813 28.6667 52.5578 28.8438C52.3026 29.0208 52.0969 29.263 51.9406 29.5703C51.7896 29.8776 51.6776 30.2344 51.6047 30.6406C51.537 31.0417 51.5031 31.4688 51.5031 31.9219ZM54.2844 39.25V24H55.7375V39.25H54.2844ZM65.6375 36.1562C65.049 36.1562 64.5151 36.0573 64.0359 35.8594C63.562 35.6562 63.1531 35.3724 62.8094 35.0078C62.4708 34.6432 62.2104 34.2109 62.0281 33.7109C61.8458 33.2109 61.7547 32.6641 61.7547 32.0703V31.7422C61.7547 31.0547 61.8563 30.4427 62.0594 29.9062C62.2625 29.3646 62.5385 28.9062 62.8875 28.5312C63.2365 28.1562 63.6323 27.8724 64.075 27.6797C64.5177 27.487 64.976 27.3906 65.45 27.3906C66.0542 27.3906 66.575 27.4948 67.0125 27.7031C67.4552 27.9115 67.8172 28.2031 68.0984 28.5781C68.3797 28.9479 68.588 29.3854 68.7234 29.8906C68.8589 30.3906 68.9266 30.9375 68.9266 31.5312V32.1797H62.6141V31H67.4813V30.8906C67.4604 30.5156 67.3823 30.151 67.2469 29.7969C67.1167 29.4427 66.9083 29.151 66.6219 28.9219C66.3354 28.6927 65.9448 28.5781 65.45 28.5781C65.1219 28.5781 64.8198 28.6484 64.5438 28.7891C64.2677 28.9245 64.0307 29.1276 63.8328 29.3984C63.6349 29.6693 63.4813 30 63.3719 30.3906C63.2625 30.7812 63.2078 31.2318 63.2078 31.7422V32.0703C63.2078 32.4714 63.2625 32.849 63.3719 33.2031C63.4865 33.5521 63.6505 33.8594 63.8641 34.125C64.0828 34.3906 64.3458 34.599 64.6531 34.75C64.9656 34.901 65.3198 34.9766 65.7156 34.9766C66.226 34.9766 66.6583 34.8724 67.0125 34.6641C67.3667 34.4557 67.6766 34.1771 67.9422 33.8281L68.8172 34.5234C68.6349 34.7995 68.4031 35.0625 68.1219 35.3125C67.8406 35.5625 67.4943 35.7656 67.0828 35.9219C66.6766 36.0781 66.1948 36.1562 65.6375 36.1562ZM74.7328 32.2812H71.9594L71.9437 31.125H74.2094C74.6573 31.125 75.0297 31.0807 75.3266 30.9922C75.6286 30.9036 75.8552 30.7708 76.0062 30.5938C76.1573 30.4167 76.2328 30.1979 76.2328 29.9375C76.2328 29.7344 76.1885 29.5573 76.1 29.4062C76.0167 29.25 75.8891 29.1224 75.7172 29.0234C75.5453 28.9193 75.3318 28.8438 75.0766 28.7969C74.8266 28.7448 74.5323 28.7188 74.1937 28.7188H72.3422V36H70.8969V27.5469H74.1937C74.7302 27.5469 75.212 27.5938 75.6391 27.6875C76.0714 27.7812 76.4385 27.9245 76.7406 28.1172C77.0479 28.3047 77.2823 28.5443 77.4437 28.8359C77.6052 29.1276 77.6859 29.4714 77.6859 29.8672C77.6859 30.1224 77.6339 30.3646 77.5297 30.5938C77.4255 30.8229 77.2719 31.026 77.0687 31.2031C76.8656 31.3802 76.6156 31.526 76.3187 31.6406C76.0219 31.75 75.6807 31.8203 75.2953 31.8516L74.7328 32.2812ZM74.7328 36H71.4359L72.1547 34.8281H74.7328C75.1339 34.8281 75.4672 34.7786 75.7328 34.6797C75.9984 34.5755 76.1964 34.4297 76.3266 34.2422C76.462 34.0495 76.5297 33.8203 76.5297 33.5547C76.5297 33.2891 76.462 33.0625 76.3266 32.875C76.1964 32.6823 75.9984 32.5365 75.7328 32.4375C75.4672 32.3333 75.1339 32.2812 74.7328 32.2812H72.5375L72.5531 31.125H75.2953L75.8187 31.5625C76.2823 31.599 76.6755 31.7135 76.9984 31.9062C77.3214 32.099 77.5661 32.3438 77.7328 32.6406C77.8995 32.9323 77.9828 33.25 77.9828 33.5938C77.9828 33.9896 77.9073 34.3385 77.7562 34.6406C77.6104 34.9427 77.3969 35.1953 77.1156 35.3984C76.8344 35.5964 76.4932 35.7474 76.0922 35.8516C75.6911 35.9505 75.238 36 74.7328 36ZM81.5156 29.1719V39.25H80.0625V27.5469H81.3906L81.5156 29.1719ZM87.2109 31.7031V31.8672C87.2109 32.4818 87.138 33.0521 86.9922 33.5781C86.8464 34.099 86.6328 34.5521 86.3516 34.9375C86.0755 35.3229 85.7344 35.6224 85.3281 35.8359C84.9219 36.0495 84.4557 36.1562 83.9297 36.1562C83.3932 36.1562 82.9193 36.0677 82.5078 35.8906C82.0964 35.7135 81.7474 35.4557 81.4609 35.1172C81.1745 34.7786 80.9453 34.3724 80.7734 33.8984C80.6068 33.4245 80.4922 32.8906 80.4297 32.2969V31.4219C80.4922 30.7969 80.6094 30.237 80.7812 29.7422C80.9531 29.2474 81.1797 28.8255 81.4609 28.4766C81.7474 28.1224 82.0938 27.8542 82.5 27.6719C82.9062 27.4844 83.375 27.3906 83.9062 27.3906C84.4375 27.3906 84.9089 27.4948 85.3203 27.7031C85.7318 27.9062 86.0781 28.1979 86.3594 28.5781C86.6406 28.9583 86.8516 29.4141 86.9922 29.9453C87.138 30.4714 87.2109 31.0573 87.2109 31.7031ZM85.7578 31.8672V31.7031C85.7578 31.2812 85.7135 30.8854 85.625 30.5156C85.5365 30.1406 85.3984 29.8125 85.2109 29.5312C85.0286 29.2448 84.7943 29.0208 84.5078 28.8594C84.2214 28.6927 83.8802 28.6094 83.4844 28.6094C83.1198 28.6094 82.8021 28.6719 82.5312 28.7969C82.2656 28.9219 82.0391 29.0911 81.8516 29.3047C81.6641 29.513 81.5104 29.7526 81.3906 30.0234C81.276 30.2891 81.1901 30.5651 81.1328 30.8516V32.875C81.237 33.2396 81.3828 33.5833 81.5703 33.9062C81.7578 34.224 82.0078 34.4818 82.3203 34.6797C82.6328 34.8724 83.026 34.9688 83.5 34.9688C83.8906 34.9688 84.2266 34.888 84.5078 34.7266C84.7943 34.5599 85.0286 34.3333 85.2109 34.0469C85.3984 33.7604 85.5365 33.4323 85.625 33.0625C85.7135 32.6875 85.7578 32.2891 85.7578 31.8672ZM94.1891 34.5547V30.2031C94.1891 29.8698 94.1214 29.5807 93.9859 29.3359C93.8557 29.0859 93.6578 28.8932 93.3922 28.7578C93.1266 28.6224 92.7984 28.5547 92.4078 28.5547C92.0432 28.5547 91.7229 28.6172 91.4469 28.7422C91.176 28.8672 90.9625 29.0312 90.8063 29.2344C90.6552 29.4375 90.5797 29.6562 90.5797 29.8906H89.1344C89.1344 29.5885 89.2125 29.2891 89.3688 28.9922C89.525 28.6953 89.749 28.4271 90.0406 28.1875C90.3375 27.9427 90.6917 27.75 91.1031 27.6094C91.5198 27.4635 91.9833 27.3906 92.4938 27.3906C93.1083 27.3906 93.65 27.4948 94.1188 27.7031C94.5927 27.9115 94.9625 28.2266 95.2281 28.6484C95.499 29.0651 95.6344 29.5885 95.6344 30.2188V34.1562C95.6344 34.4375 95.6578 34.737 95.7047 35.0547C95.7568 35.3724 95.8323 35.6458 95.9313 35.875V36H94.4234C94.3505 35.8333 94.2932 35.612 94.2516 35.3359C94.2099 35.0547 94.1891 34.7943 94.1891 34.5547ZM94.4391 30.875L94.4547 31.8906H92.9938C92.5823 31.8906 92.2151 31.9245 91.8922 31.9922C91.5693 32.0547 91.2984 32.151 91.0797 32.2812C90.8609 32.4115 90.6943 32.5755 90.5797 32.7734C90.4651 32.9661 90.4078 33.1927 90.4078 33.4531C90.4078 33.7188 90.4677 33.9609 90.5875 34.1797C90.7073 34.3984 90.887 34.5729 91.1266 34.7031C91.3714 34.8281 91.6708 34.8906 92.025 34.8906C92.4677 34.8906 92.8583 34.7969 93.1969 34.6094C93.5354 34.4219 93.8036 34.1927 94.0016 33.9219C94.2047 33.651 94.3141 33.388 94.3297 33.1328L94.9469 33.8281C94.9104 34.0469 94.8115 34.2891 94.65 34.5547C94.4885 34.8203 94.2724 35.0755 94.0016 35.3203C93.7359 35.5599 93.4182 35.7604 93.0484 35.9219C92.6839 36.0781 92.2724 36.1562 91.8141 36.1562C91.2411 36.1562 90.7385 36.0443 90.3063 35.8203C89.8792 35.5964 89.5458 35.2969 89.3063 34.9219C89.0719 34.5417 88.9547 34.1172 88.9547 33.6484C88.9547 33.1953 89.0432 32.7969 89.2203 32.4531C89.3974 32.1042 89.6526 31.8151 89.9859 31.5859C90.3193 31.3516 90.7203 31.1745 91.1891 31.0547C91.6578 30.9349 92.1813 30.875 92.7594 30.875H94.4391ZM103.706 27.5469V28.7422H99.6203V27.5469H103.706ZM104.98 27.5469V36H103.534V27.5469H104.98ZM99.2687 27.5469H100.722L100.503 31.625C100.467 32.2552 100.407 32.8125 100.323 33.2969C100.245 33.776 100.136 34.1875 99.9953 34.5312C99.8599 34.875 99.688 35.1562 99.4797 35.375C99.2766 35.5885 99.0318 35.7474 98.7453 35.8516C98.4589 35.9505 98.1281 36 97.7531 36H97.3V34.7266L97.6125 34.7031C97.8365 34.6875 98.0266 34.6354 98.1828 34.5469C98.3443 34.4583 98.4797 34.3281 98.5891 34.1562C98.6984 33.9792 98.787 33.7526 98.8547 33.4766C98.9276 33.2005 98.9823 32.8724 99.0187 32.4922C99.0604 32.112 99.0917 31.6693 99.1125 31.1641L99.2687 27.5469ZM109.169 31.9688H110.731L108.286 36H106.723L109.169 31.9688ZM110.38 27.5469H113.911V36H112.466V28.7188H110.38C109.968 28.7188 109.632 28.7891 109.372 28.9297C109.111 29.0651 108.921 29.2422 108.802 29.4609C108.682 29.6797 108.622 29.9062 108.622 30.1406C108.622 30.3698 108.677 30.5911 108.786 30.8047C108.895 31.013 109.067 31.1849 109.302 31.3203C109.536 31.4557 109.838 31.5234 110.208 31.5234H112.856V32.7109H110.208C109.723 32.7109 109.294 32.6458 108.919 32.5156C108.544 32.3854 108.226 32.2057 107.966 31.9766C107.705 31.7422 107.507 31.4688 107.372 31.1562C107.236 30.8385 107.169 30.4948 107.169 30.125C107.169 29.7552 107.239 29.4141 107.38 29.1016C107.526 28.7891 107.734 28.5156 108.005 28.2812C108.281 28.0469 108.617 27.8672 109.012 27.7422C109.414 27.612 109.869 27.5469 110.38 27.5469Z" fill="#4F4F4F"/>
<path d="M38.5 59.5H259" stroke="#BDBDBD"/>
<path fill-rule="evenodd" clip-rule="evenodd" d="M254.133 35.6894C254.091 35.6478 254.057 35.5984 254.035 35.544C254.012 35.4896 254 35.4313 254 35.3724C254 35.3135 254.012 35.2552 254.035 35.2008C254.057 35.1464 254.091 35.097 254.133 35.0554L259.245 29.9999L254.133 24.9444C254.048 24.8603 254 24.7463 254 24.6274C254 24.5085 254.048 24.3945 254.133 24.3104C254.218 24.2264 254.333 24.1791 254.453 24.1791C254.574 24.1791 254.689 24.2264 254.774 24.3104L260.206 29.6829C260.248 29.7245 260.281 29.7739 260.304 29.8283C260.327 29.8827 260.339 29.941 260.339 29.9999C260.339 30.0588 260.327 30.1171 260.304 30.1715C260.281 30.2259 260.248 30.2753 260.206 30.3169L254.774 35.6894C254.732 35.7311 254.682 35.7642 254.627 35.7867C254.572 35.8093 254.513 35.8209 254.453 35.8209C254.394 35.8209 254.335 35.8093 254.28 35.7867C254.225 35.7642 254.175 35.7311 254.133 35.6894Z" fill="#4F4F4F"/>
<g clip-path="url(#clip0_266_4569)">
<path d="M18.5 19H3.5C2.83696 19 2.20107 19.2634 1.73223 19.7322C1.26339 20.2011 1 20.837 1 21.5L1 36.5C1 37.163 1.26339 37.7989 1.73223 38.2678C2.20107 38.7366 2.83696 39 3.5 39H18.5C19.163 39 19.7989 38.7366 20.2678 38.2678C20.7366 37.7989 21 37.163 21 36.5V21.5C21 20.837 20.7366 20.2011 20.2678 19.7322C19.7989 19.2634 19.163 19 18.5 19V19ZM2.25 23.8212C2.25 23.23 2.81 22.75 3.5 22.75H18.5C19.19 22.75 19.75 23.23 19.75 23.8212V36.6787C19.75 37.27 19.19 37.75 18.5 37.75H3.5C2.81 37.75 2.25 37.27 2.25 36.6787V23.8212Z" fill="#4F4F4F"/>
<path d="M9.125 27.75C9.45652 27.75 9.77446 27.6183 10.0089 27.3839C10.2433 27.1495 10.375 26.8315 10.375 26.5C10.375 26.1685 10.2433 25.8505 10.0089 25.6161C9.77446 25.3817 9.45652 25.25 9.125 25.25C8.79348 25.25 8.47554 25.3817 8.24112 25.6161C8.0067 25.8505 7.875 26.1685 7.875 26.5C7.875 26.8315 8.0067 27.1495 8.24112 27.3839C8.47554 27.6183 8.79348 27.75 9.125 27.75ZM12.875 27.75C13.2065 27.75 13.5245 27.6183 13.7589 27.3839C13.9933 27.1495 14.125 26.8315 14.125 26.5C14.125 26.1685 13.9933 25.8505 13.7589 25.6161C13.5245 25.3817 13.2065 25.25 12.875 25.25C12.5435 25.25 12.2255 25.3817 11.9911 25.6161C11.7567 25.8505 11.625 26.1685 11.625 26.5C11.625 26.8315 11.7567 27.1495 11.9911 27.3839C12.2255 27.6183 12.5435 27.75 12.875 27.75ZM16.625 27.75C16.9565 27.75 17.2745 27.6183 17.5089 27.3839C17.7433 27.1495 17.875 26.8315 17.875 26.5C17.875 26.1685 17.7433 25.8505 17.5089 25.6161C17.2745 25.3817 16.9565 25.25 16.625 25.25C16.2935 25.25 15.9755 25.3817 15.7411 25.6161C15.5067 25.8505 15.375 26.1685 15.375 26.5C15.375 26.8315 15.5067 27.1495 15.7411 27.3839C15.9755 27.6183 16.2935 27.75 16.625 27.75ZM5.375 31.5C5.70652 31.5 6.02446 31.3683 6.25888 31.1339C6.4933 30.8995 6.625 30.5815 6.625 30.25C6.625 29.9185 6.4933 29.6005 6.25888 29.3661C6.02446 29.1317 5.70652 29 5.375 29C5.04348 29 4.72554 29.1317 4.49112 29.3661C4.2567 29.6005 4.125 29.9185 4.125 30.25C4.125 30.5815 4.2567 30.8995 4.49112 31.1339C4.72554 31.3683 5.04348 31.5 5.375 31.5ZM9.125 31.5C9.45652 31.5 9.77446 31.3683 10.0089 31.1339C10.2433 30.8995 10.375 30.5815 10.375 30.25C10.375 29.9185 10.2433 29.6005 10.0089 29.3661C9.77446 29.1317 9.45652 29 9.125 29C8.79348 29 8.47554 29.1317 8.24112 29.3661C8.0067 29.6005 7.875 29.9185 7.875 30.25C7.875 30.5815 8.0067 30.8995 8.24112 31.1339C8.47554 31.3683 8.79348 31.5 9.125 31.5ZM12.875 31.5C13.2065 31.5 13.5245 31.3683 13.7589 31.1339C13.9933 30.8995 14.125 30.5815 14.125 30.25C14.125 29.9185 13.9933 29.6005 13.7589 29.3661C13.5245 29.1317 13.2065 29 12.875 29C12.5435 29 12.2255 29.1317 11.9911 29.3661C11.7567 29.6005 11.625 29.9185 11.625 30.25C11.625 30.5815 11.7567 30.8995 11.9911 31.1339C12.2255 31.3683 12.5435 31.5 12.875 31.5ZM16.625 31.5C16.9565 31.5 17.2745 31.3683 17.5089 31.1339C17.7433 30.8995 17.875 30.5815 17.875 30.25C17.875 29.9185 17.7433 29.6005 17.5089 29.3661C17.2745 29.1317 16.9565 29 16.625 29C16.2935 29 15.9755 29.1317 15.7411 29.3661C15.5067 29.6005 15.375 29.9185 15.375 30.25C15.375 30.5815 15.5067 30.8995 15.7411 31.1339C15.9755 31.3683 16.2935 31.5 16.625 31.5ZM5.375 35.25C5.70652 35.25 6.02446 35.1183 6.25888 34.8839C6.4933 34.6495 6.625 34.3315 6.625 34C6.625 33.6685 6.4933 33.3505 6.25888 33.1161C6.02446 32.8817 5.70652 32.75 5.375 32.75C5.04348 32.75 4.72554 32.8817 4.49112 33.1161C4.2567 33.3505 4.125 33.6685 4.125 34C4.125 34.3315 4.2567 34.6495 4.49112 34.8839C4.72554 35.1183 5.04348 35.25 5.375 35.25ZM9.125 35.25C9.45652 35.25 9.77446 35.1183 10.0089 34.8839C10.2433 34.6495 10.375 34.3315 10.375 34C10.375 33.6685 10.2433 33.3505 10.0089 33.1161C9.77446 32.8817 9.45652 32.75 9.125 32.75C8.79348 32.75 8.47554 32.8817 8.24112 33.1161C8.0067 33.3505 7.875 33.6685 7.875 34C7.875 34.3315 8.0067 34.6495 8.24112 34.8839C8.47554 35.1183 8.79348 35.25 9.125 35.25ZM12.875 35.25C13.2065 35.25 13.5245 35.1183 13.7589 34.8839C13.9933 34.6495 14.125 34.3315 14.125 34C14.125 33.6685 13.9933 33.3505 13.7589 33.1161C13.5245 32.8817 13.2065 32.75 12.875 32.75C12.5435 32.75 12.2255 32.8817 11.9911 33.1161C11.7567 33.3505 11.625 33.6685 11.625 34C11.625 34.3315 11.7567 34.6495 11.9911 34.8839C12.2255 35.1183 12.5435 35.25 12.875 35.25Z" fill="#4F4F4F"/>
</g>
<defs>
<clipPath id="clip0_266_4569">
<rect width="20" height="20" fill="white" transform="translate(1 19)"/>
</clipPath>
</defs>
</svg>
