<svg width="264" height="60" viewBox="0 0 264 60" fill="none" xmlns="http://www.w3.org/2000/svg">
<path d="M42.4766 35.125L44.8281 27.5469H46.375L42.9844 37.3047C42.9062 37.513 42.8021 37.737 42.6719 37.9766C42.5469 38.2214 42.3854 38.4531 42.1875 38.6719C41.9896 38.8906 41.75 39.0677 41.4688 39.2031C41.1927 39.3438 40.862 39.4141 40.4766 39.4141C40.362 39.4141 40.2161 39.3984 40.0391 39.3672C39.862 39.3359 39.737 39.3099 39.6641 39.2891L39.6562 38.1172C39.6979 38.1224 39.763 38.1276 39.8516 38.1328C39.9453 38.1432 40.0104 38.1484 40.0469 38.1484C40.375 38.1484 40.6536 38.1042 40.8828 38.0156C41.112 37.9323 41.3047 37.7891 41.4609 37.5859C41.6224 37.388 41.7604 37.1146 41.875 36.7656L42.4766 35.125ZM40.75 27.5469L42.9453 34.1094L43.3203 35.6328L42.2812 36.1641L39.1719 27.5469H40.75ZM53.15 27.5469V28.7422H49.0641V27.5469H53.15ZM54.4234 27.5469V36H52.9781V27.5469H54.4234ZM48.7125 27.5469H50.1656L49.9469 31.625C49.9104 32.2552 49.8505 32.8125 49.7672 33.2969C49.6891 33.776 49.5797 34.1875 49.4391 34.5312C49.3036 34.875 49.1318 35.1562 48.9234 35.375C48.7203 35.5885 48.4755 35.7474 48.1891 35.8516C47.9026 35.9505 47.5719 36 47.1969 36H46.7438V34.7266L47.0563 34.7031C47.2802 34.6875 47.4703 34.6354 47.6266 34.5469C47.788 34.4583 47.9234 34.3281 48.0328 34.1562C48.1422 33.9792 48.2307 33.7526 48.2984 33.4766C48.3714 33.2005 48.426 32.8724 48.4625 32.4922C48.5042 32.112 48.5354 31.6693 48.5563 31.1641L48.7125 27.5469ZM56.925 35.2344C56.925 34.9896 57.0005 34.7839 57.1516 34.6172C57.3078 34.4453 57.5318 34.3594 57.8234 34.3594C58.1151 34.3594 58.3365 34.4453 58.4875 34.6172C58.6437 34.7839 58.7219 34.9896 58.7219 35.2344C58.7219 35.474 58.6437 35.6771 58.4875 35.8438C58.3365 36.0104 58.1151 36.0938 57.8234 36.0938C57.5318 36.0938 57.3078 36.0104 57.1516 35.8438C57.0005 35.6771 56.925 35.474 56.925 35.2344ZM72.6625 24.625V25.8594H67.1781V36H65.6781V24.625H72.6625ZM74.2812 29.1719V39.25H72.8281V27.5469H74.1562L74.2812 29.1719ZM79.9766 31.7031V31.8672C79.9766 32.4818 79.9036 33.0521 79.7578 33.5781C79.612 34.099 79.3984 34.5521 79.1172 34.9375C78.8411 35.3229 78.5 35.6224 78.0938 35.8359C77.6875 36.0495 77.2214 36.1562 76.6953 36.1562C76.1589 36.1562 75.6849 36.0677 75.2734 35.8906C74.862 35.7135 74.513 35.4557 74.2266 35.1172C73.9401 34.7786 73.7109 34.3724 73.5391 33.8984C73.3724 33.4245 73.2578 32.8906 73.1953 32.2969V31.4219C73.2578 30.7969 73.375 30.237 73.5469 29.7422C73.7188 29.2474 73.9453 28.8255 74.2266 28.4766C74.513 28.1224 74.8594 27.8542 75.2656 27.6719C75.6719 27.4844 76.1406 27.3906 76.6719 27.3906C77.2031 27.3906 77.6745 27.4948 78.0859 27.7031C78.4974 27.9062 78.8438 28.1979 79.125 28.5781C79.4062 28.9583 79.6172 29.4141 79.7578 29.9453C79.9036 30.4714 79.9766 31.0573 79.9766 31.7031ZM78.5234 31.8672V31.7031C78.5234 31.2812 78.4792 30.8854 78.3906 30.5156C78.3021 30.1406 78.1641 29.8125 77.9766 29.5312C77.7943 29.2448 77.5599 29.0208 77.2734 28.8594C76.987 28.6927 76.6458 28.6094 76.25 28.6094C75.8854 28.6094 75.5677 28.6719 75.2969 28.7969C75.0312 28.9219 74.8047 29.0911 74.6172 29.3047C74.4297 29.513 74.276 29.7526 74.1562 30.0234C74.0417 30.2891 73.9557 30.5651 73.8984 30.8516V32.875C74.0026 33.2396 74.1484 33.5833 74.3359 33.9062C74.5234 34.224 74.7734 34.4818 75.0859 34.6797C75.3984 34.8724 75.7917 34.9688 76.2656 34.9688C76.6562 34.9688 76.9922 34.888 77.2734 34.7266C77.5599 34.5599 77.7943 34.3333 77.9766 34.0469C78.1641 33.7604 78.3021 33.4323 78.3906 33.0625C78.4792 32.6875 78.5234 32.2891 78.5234 31.8672ZM83.5328 33.7109L87.4313 27.5469H88.8844V36H87.4313V29.8359L83.5328 36H82.0953V27.5469H83.5328V33.7109ZM96.7766 23.8672H97.9641C97.9641 24.3776 97.8859 24.7839 97.7297 25.0859C97.5734 25.3828 97.3599 25.612 97.0891 25.7734C96.8234 25.9349 96.5214 26.0573 96.1828 26.1406C95.8495 26.224 95.5031 26.3047 95.1437 26.3828C94.6958 26.4766 94.2792 26.625 93.8937 26.8281C93.5135 27.026 93.1854 27.3073 92.9094 27.6719C92.6385 28.0365 92.438 28.5104 92.3078 29.0938C92.1828 29.6771 92.149 30.3984 92.2062 31.2578V31.9766H91.0187V31.2578C91.0187 30.2943 91.1099 29.4531 91.2922 28.7344C91.4797 28.0156 91.7427 27.4089 92.0812 26.9141C92.4198 26.4193 92.8208 26.026 93.2844 25.7344C93.7531 25.4427 94.2687 25.2422 94.8312 25.1328C95.2375 25.0547 95.5865 24.9714 95.8781 24.8828C96.1698 24.7891 96.3911 24.6641 96.5422 24.5078C96.6984 24.3516 96.7766 24.138 96.7766 23.8672ZM95.0656 28.0312C95.6177 28.0312 96.1099 28.1276 96.5422 28.3203C96.9745 28.513 97.3417 28.7812 97.6437 29.125C97.9458 29.4688 98.175 29.875 98.3312 30.3438C98.4927 30.8073 98.5734 31.3125 98.5734 31.8594V32.0312C98.5734 32.6198 98.4875 33.1667 98.3156 33.6719C98.149 34.1719 97.9016 34.6094 97.5734 34.9844C97.2505 35.3542 96.8547 35.6432 96.3859 35.8516C95.9224 36.0599 95.3937 36.1641 94.8 36.1641C94.2062 36.1641 93.675 36.0599 93.2062 35.8516C92.7427 35.6432 92.3469 35.3542 92.0187 34.9844C91.6906 34.6094 91.4406 34.1719 91.2687 33.6719C91.1021 33.1667 91.0187 32.6198 91.0187 32.0312V31.8594C91.0187 31.7292 91.0422 31.6016 91.0891 31.4766C91.1359 31.3516 91.1932 31.224 91.2609 31.0938C91.3339 30.9635 91.399 30.8255 91.4562 30.6797C91.649 30.2109 91.912 29.776 92.2453 29.375C92.5839 28.974 92.9875 28.651 93.4562 28.4062C93.9302 28.1562 94.4667 28.0312 95.0656 28.0312ZM94.7844 29.2109C94.2531 29.2109 93.8156 29.3333 93.4719 29.5781C93.1333 29.8229 92.8807 30.1484 92.7141 30.5547C92.5474 30.9557 92.4641 31.3906 92.4641 31.8594V32.0312C92.4641 32.4271 92.5109 32.8021 92.6047 33.1562C92.6984 33.5104 92.8391 33.8255 93.0266 34.1016C93.2193 34.3724 93.4615 34.5859 93.7531 34.7422C94.05 34.8984 94.399 34.9766 94.8 34.9766C95.201 34.9766 95.5474 34.8984 95.8391 34.7422C96.1307 34.5859 96.3703 34.3724 96.5578 34.1016C96.7453 33.8255 96.8859 33.5104 96.9797 33.1562C97.0734 32.8021 97.1203 32.4271 97.1203 32.0312V31.8594C97.1203 31.5052 97.0734 31.1693 96.9797 30.8516C96.8859 30.5339 96.7427 30.2526 96.55 30.0078C96.3625 29.763 96.1203 29.5703 95.8234 29.4297C95.5318 29.2839 95.1854 29.2109 94.7844 29.2109ZM105.348 34.5547V30.2031C105.348 29.8698 105.281 29.5807 105.145 29.3359C105.015 29.0859 104.817 28.8932 104.552 28.7578C104.286 28.6224 103.958 28.5547 103.567 28.5547C103.203 28.5547 102.882 28.6172 102.606 28.7422C102.335 28.8672 102.122 29.0312 101.966 29.2344C101.815 29.4375 101.739 29.6562 101.739 29.8906H100.294C100.294 29.5885 100.372 29.2891 100.528 28.9922C100.684 28.6953 100.908 28.4271 101.2 28.1875C101.497 27.9427 101.851 27.75 102.263 27.6094C102.679 27.4635 103.143 27.3906 103.653 27.3906C104.268 27.3906 104.809 27.4948 105.278 27.7031C105.752 27.9115 106.122 28.2266 106.388 28.6484C106.658 29.0651 106.794 29.5885 106.794 30.2188V34.1562C106.794 34.4375 106.817 34.737 106.864 35.0547C106.916 35.3724 106.992 35.6458 107.091 35.875V36H105.583C105.51 35.8333 105.453 35.612 105.411 35.3359C105.369 35.0547 105.348 34.7943 105.348 34.5547ZM105.598 30.875L105.614 31.8906H104.153C103.742 31.8906 103.374 31.9245 103.052 31.9922C102.729 32.0547 102.458 32.151 102.239 32.2812C102.02 32.4115 101.854 32.5755 101.739 32.7734C101.624 32.9661 101.567 33.1927 101.567 33.4531C101.567 33.7188 101.627 33.9609 101.747 34.1797C101.867 34.3984 102.046 34.5729 102.286 34.7031C102.531 34.8281 102.83 34.8906 103.184 34.8906C103.627 34.8906 104.018 34.7969 104.356 34.6094C104.695 34.4219 104.963 34.1927 105.161 33.9219C105.364 33.651 105.473 33.388 105.489 33.1328L106.106 33.8281C106.07 34.0469 105.971 34.2891 105.809 34.5547C105.648 34.8203 105.432 35.0755 105.161 35.3203C104.895 35.5599 104.578 35.7604 104.208 35.9219C103.843 36.0781 103.432 36.1562 102.973 36.1562C102.401 36.1562 101.898 36.0443 101.466 35.8203C101.039 35.5964 100.705 35.2969 100.466 34.9219C100.231 34.5417 100.114 34.1172 100.114 33.6484C100.114 33.1953 100.203 32.7969 100.38 32.4531C100.557 32.1042 100.812 31.8151 101.145 31.5859C101.479 31.3516 101.88 31.1745 102.348 31.0547C102.817 30.9349 103.341 30.875 103.919 30.875H105.598ZM114.866 27.5469V28.7422H110.78V27.5469H114.866ZM116.139 27.5469V36H114.694V27.5469H116.139ZM110.428 27.5469H111.881L111.662 31.625C111.626 32.2552 111.566 32.8125 111.483 33.2969C111.405 33.776 111.295 34.1875 111.155 34.5312C111.019 34.875 110.847 35.1562 110.639 35.375C110.436 35.5885 110.191 35.7474 109.905 35.8516C109.618 35.9505 109.287 36 108.912 36H108.459V34.7266L108.772 34.7031C108.996 34.6875 109.186 34.6354 109.342 34.5469C109.504 34.4583 109.639 34.3281 109.748 34.1562C109.858 33.9792 109.946 33.7526 110.014 33.4766C110.087 33.2005 110.142 32.8724 110.178 32.4922C110.22 32.112 110.251 31.6693 110.272 31.1641L110.428 27.5469ZM122.125 36.1562C121.536 36.1562 121.003 36.0573 120.523 35.8594C120.049 35.6562 119.641 35.3724 119.297 35.0078C118.958 34.6432 118.698 34.2109 118.516 33.7109C118.333 33.2109 118.242 32.6641 118.242 32.0703V31.7422C118.242 31.0547 118.344 30.4427 118.547 29.9062C118.75 29.3646 119.026 28.9062 119.375 28.5312C119.724 28.1562 120.12 27.8724 120.562 27.6797C121.005 27.487 121.464 27.3906 121.938 27.3906C122.542 27.3906 123.062 27.4948 123.5 27.7031C123.943 27.9115 124.305 28.2031 124.586 28.5781C124.867 28.9479 125.076 29.3854 125.211 29.8906C125.346 30.3906 125.414 30.9375 125.414 31.5312V32.1797H119.102V31H123.969V30.8906C123.948 30.5156 123.87 30.151 123.734 29.7969C123.604 29.4427 123.396 29.151 123.109 28.9219C122.823 28.6927 122.432 28.5781 121.938 28.5781C121.609 28.5781 121.307 28.6484 121.031 28.7891C120.755 28.9245 120.518 29.1276 120.32 29.3984C120.122 29.6693 119.969 30 119.859 30.3906C119.75 30.7812 119.695 31.2318 119.695 31.7422V32.0703C119.695 32.4714 119.75 32.849 119.859 33.2031C119.974 33.5521 120.138 33.8594 120.352 34.125C120.57 34.3906 120.833 34.599 121.141 34.75C121.453 34.901 121.807 34.9766 122.203 34.9766C122.714 34.9766 123.146 34.8724 123.5 34.6641C123.854 34.4557 124.164 34.1771 124.43 33.8281L125.305 34.5234C125.122 34.7995 124.891 35.0625 124.609 35.3125C124.328 35.5625 123.982 35.7656 123.57 35.9219C123.164 36.0781 122.682 36.1562 122.125 36.1562ZM131.22 32.2812H128.447L128.431 31.125H130.697C131.145 31.125 131.517 31.0807 131.814 30.9922C132.116 30.9036 132.343 30.7708 132.494 30.5938C132.645 30.4167 132.72 30.1979 132.72 29.9375C132.72 29.7344 132.676 29.5573 132.588 29.4062C132.504 29.25 132.377 29.1224 132.205 29.0234C132.033 28.9193 131.819 28.8438 131.564 28.7969C131.314 28.7448 131.02 28.7188 130.681 28.7188H128.83V36H127.384V27.5469H130.681C131.218 27.5469 131.699 27.5938 132.127 27.6875C132.559 27.7812 132.926 27.9245 133.228 28.1172C133.535 28.3047 133.77 28.5443 133.931 28.8359C134.093 29.1276 134.173 29.4714 134.173 29.8672C134.173 30.1224 134.121 30.3646 134.017 30.5938C133.913 30.8229 133.759 31.026 133.556 31.2031C133.353 31.3802 133.103 31.526 132.806 31.6406C132.509 31.75 132.168 31.8203 131.783 31.8516L131.22 32.2812ZM131.22 36H127.923L128.642 34.8281H131.22C131.621 34.8281 131.955 34.7786 132.22 34.6797C132.486 34.5755 132.684 34.4297 132.814 34.2422C132.949 34.0495 133.017 33.8203 133.017 33.5547C133.017 33.2891 132.949 33.0625 132.814 32.875C132.684 32.6823 132.486 32.5365 132.22 32.4375C131.955 32.3333 131.621 32.2812 131.22 32.2812H129.025L129.041 31.125H131.783L132.306 31.5625C132.77 31.599 133.163 31.7135 133.486 31.9062C133.809 32.099 134.054 32.3438 134.22 32.6406C134.387 32.9323 134.47 33.25 134.47 33.5938C134.47 33.9896 134.395 34.3385 134.244 34.6406C134.098 34.9427 133.884 35.1953 133.603 35.3984C133.322 35.5964 132.981 35.7474 132.58 35.8516C132.179 35.9505 131.726 36 131.22 36ZM141.542 34.5547V30.2031C141.542 29.8698 141.474 29.5807 141.339 29.3359C141.209 29.0859 141.011 28.8932 140.745 28.7578C140.48 28.6224 140.152 28.5547 139.761 28.5547C139.396 28.5547 139.076 28.6172 138.8 28.7422C138.529 28.8672 138.316 29.0312 138.159 29.2344C138.008 29.4375 137.933 29.6562 137.933 29.8906H136.488C136.488 29.5885 136.566 29.2891 136.722 28.9922C136.878 28.6953 137.102 28.4271 137.394 28.1875C137.691 27.9427 138.045 27.75 138.456 27.6094C138.873 27.4635 139.336 27.3906 139.847 27.3906C140.461 27.3906 141.003 27.4948 141.472 27.7031C141.946 27.9115 142.316 28.2266 142.581 28.6484C142.852 29.0651 142.988 29.5885 142.988 30.2188V34.1562C142.988 34.4375 143.011 34.737 143.058 35.0547C143.11 35.3724 143.185 35.6458 143.284 35.875V36H141.777C141.704 35.8333 141.646 35.612 141.605 35.3359C141.563 35.0547 141.542 34.7943 141.542 34.5547ZM141.792 30.875L141.808 31.8906H140.347C139.935 31.8906 139.568 31.9245 139.245 31.9922C138.922 32.0547 138.652 32.151 138.433 32.2812C138.214 32.4115 138.047 32.5755 137.933 32.7734C137.818 32.9661 137.761 33.1927 137.761 33.4531C137.761 33.7188 137.821 33.9609 137.941 34.1797C138.06 34.3984 138.24 34.5729 138.48 34.7031C138.724 34.8281 139.024 34.8906 139.378 34.8906C139.821 34.8906 140.211 34.7969 140.55 34.6094C140.889 34.4219 141.157 34.1927 141.355 33.9219C141.558 33.651 141.667 33.388 141.683 33.1328L142.3 33.8281C142.264 34.0469 142.165 34.2891 142.003 34.5547C141.842 34.8203 141.626 35.0755 141.355 35.3203C141.089 35.5599 140.771 35.7604 140.402 35.9219C140.037 36.0781 139.626 36.1562 139.167 36.1562C138.594 36.1562 138.092 36.0443 137.659 35.8203C137.232 35.5964 136.899 35.2969 136.659 34.9219C136.425 34.5417 136.308 34.1172 136.308 33.6484C136.308 33.1953 136.396 32.7969 136.573 32.4531C136.751 32.1042 137.006 31.8151 137.339 31.5859C137.672 31.3516 138.073 31.1745 138.542 31.0547C139.011 30.9349 139.534 30.875 140.113 30.875H141.792ZM154.123 24.5625V36H152.678V26.3672L149.764 27.4297V26.125L153.897 24.5625H154.123ZM165.664 29.4062V31.1406C165.664 32.0729 165.581 32.8594 165.414 33.5C165.247 34.1406 165.008 34.6562 164.695 35.0469C164.383 35.4375 164.005 35.7214 163.562 35.8984C163.125 36.0703 162.63 36.1562 162.078 36.1562C161.641 36.1562 161.237 36.1016 160.867 35.9922C160.497 35.8828 160.164 35.7083 159.867 35.4688C159.576 35.224 159.326 34.9062 159.117 34.5156C158.909 34.125 158.75 33.651 158.641 33.0938C158.531 32.5365 158.477 31.8854 158.477 31.1406V29.4062C158.477 28.474 158.56 27.6927 158.727 27.0625C158.898 26.4323 159.141 25.9271 159.453 25.5469C159.766 25.1615 160.141 24.8854 160.578 24.7188C161.021 24.5521 161.516 24.4688 162.062 24.4688C162.505 24.4688 162.911 24.5234 163.281 24.6328C163.656 24.737 163.99 24.9062 164.281 25.1406C164.573 25.3698 164.82 25.6771 165.023 26.0625C165.232 26.4427 165.391 26.9089 165.5 27.4609C165.609 28.013 165.664 28.6615 165.664 29.4062ZM164.211 31.375V29.1641C164.211 28.6536 164.18 28.2057 164.117 27.8203C164.06 27.4297 163.974 27.0964 163.859 26.8203C163.745 26.5443 163.599 26.3203 163.422 26.1484C163.25 25.9766 163.049 25.8516 162.82 25.7734C162.596 25.6901 162.344 25.6484 162.062 25.6484C161.719 25.6484 161.414 25.7135 161.148 25.8438C160.883 25.9688 160.659 26.1693 160.477 26.4453C160.299 26.7214 160.164 27.0833 160.07 27.5312C159.977 27.9792 159.93 28.5234 159.93 29.1641V31.375C159.93 31.8854 159.958 32.3359 160.016 32.7266C160.078 33.1172 160.169 33.4557 160.289 33.7422C160.409 34.0234 160.555 34.2552 160.727 34.4375C160.898 34.6198 161.096 34.7552 161.32 34.8438C161.549 34.9271 161.802 34.9688 162.078 34.9688C162.432 34.9688 162.742 34.901 163.008 34.7656C163.273 34.6302 163.495 34.4193 163.672 34.1328C163.854 33.8411 163.99 33.4688 164.078 33.0156C164.167 32.5573 164.211 32.0104 164.211 31.375ZM176.378 25.6328L172.613 36H171.073L175.409 24.625H176.402L176.378 25.6328ZM179.534 36L175.761 25.6328L175.738 24.625H176.73L181.081 36H179.534ZM179.339 31.7891V33.0234H172.948V31.7891H179.339ZM183.848 34.2812V35.4453C183.848 35.9193 183.729 36.4193 183.489 36.9453C183.249 37.4766 182.914 37.9193 182.481 38.2734L181.661 37.7031C181.828 37.474 181.968 37.2396 182.083 37C182.197 36.7656 182.283 36.5208 182.341 36.2656C182.403 36.0156 182.434 35.75 182.434 35.4688V34.2812H183.848ZM191.531 27.5469V36H190.086V27.5469H191.531ZM197.078 27.5469L193.07 32.3906H191.047L190.828 31.125H192.484L195.32 27.5469H197.078ZM195.523 36L192.414 32.1719L193.344 31.125L197.359 36H195.523ZM202.736 32.2812H199.962L199.947 31.125H202.212C202.66 31.125 203.033 31.0807 203.33 30.9922C203.632 30.9036 203.858 30.7708 204.009 30.5938C204.16 30.4167 204.236 30.1979 204.236 29.9375C204.236 29.7344 204.192 29.5573 204.103 29.4062C204.02 29.25 203.892 29.1224 203.72 29.0234C203.548 28.9193 203.335 28.8438 203.08 28.7969C202.83 28.7448 202.535 28.7188 202.197 28.7188H200.345V36H198.9V27.5469H202.197C202.733 27.5469 203.215 27.5938 203.642 27.6875C204.074 27.7812 204.442 27.9245 204.744 28.1172C205.051 28.3047 205.285 28.5443 205.447 28.8359C205.608 29.1276 205.689 29.4714 205.689 29.8672C205.689 30.1224 205.637 30.3646 205.533 30.5938C205.429 30.8229 205.275 31.026 205.072 31.2031C204.869 31.3802 204.619 31.526 204.322 31.6406C204.025 31.75 203.684 31.8203 203.298 31.8516L202.736 32.2812ZM202.736 36H199.439L200.158 34.8281H202.736C203.137 34.8281 203.47 34.7786 203.736 34.6797C204.002 34.5755 204.199 34.4297 204.33 34.2422C204.465 34.0495 204.533 33.8203 204.533 33.5547C204.533 33.2891 204.465 33.0625 204.33 32.875C204.199 32.6823 204.002 32.5365 203.736 32.4375C203.47 32.3333 203.137 32.2812 202.736 32.2812H200.541L200.556 31.125H203.298L203.822 31.5625C204.285 31.599 204.679 31.7135 205.002 31.9062C205.324 32.099 205.569 32.3438 205.736 32.6406C205.903 32.9323 205.986 33.25 205.986 33.5938C205.986 33.9896 205.91 34.3385 205.759 34.6406C205.614 34.9427 205.4 35.1953 205.119 35.3984C204.837 35.5964 204.496 35.7474 204.095 35.8516C203.694 35.9505 203.241 36 202.736 36ZM208.097 35.2344C208.097 34.9896 208.172 34.7839 208.323 34.6172C208.48 34.4453 208.704 34.3594 208.995 34.3594C209.287 34.3594 209.508 34.4453 209.659 34.6172C209.816 34.7839 209.894 34.9896 209.894 35.2344C209.894 35.474 209.816 35.6771 209.659 35.8438C209.508 36.0104 209.287 36.0938 208.995 36.0938C208.704 36.0938 208.48 36.0104 208.323 35.8438C208.172 35.6771 208.097 35.474 208.097 35.2344ZM221.155 24.5625V36H219.709V26.3672L216.795 27.4297V26.125L220.928 24.5625H221.155ZM233.008 34.8125V36H225.562V34.9609L229.289 30.8125C229.747 30.3021 230.102 29.8698 230.352 29.5156C230.607 29.1562 230.784 28.8359 230.883 28.5547C230.987 28.2682 231.039 27.9766 231.039 27.6797C231.039 27.3047 230.961 26.9661 230.805 26.6641C230.654 26.3568 230.43 26.112 230.133 25.9297C229.836 25.7474 229.477 25.6562 229.055 25.6562C228.549 25.6562 228.128 25.7552 227.789 25.9531C227.456 26.1458 227.206 26.4167 227.039 26.7656C226.872 27.1146 226.789 27.5156 226.789 27.9688H225.344C225.344 27.3281 225.484 26.7422 225.766 26.2109C226.047 25.6797 226.464 25.2578 227.016 24.9453C227.568 24.6276 228.247 24.4688 229.055 24.4688C229.773 24.4688 230.388 24.5964 230.898 24.8516C231.409 25.1016 231.799 25.4557 232.07 25.9141C232.346 26.3672 232.484 26.8984 232.484 27.5078C232.484 27.8411 232.427 28.1797 232.312 28.5234C232.203 28.862 232.049 29.2005 231.852 29.5391C231.659 29.8776 231.432 30.2109 231.172 30.5391C230.917 30.8672 230.643 31.1901 230.352 31.5078L227.305 34.8125H233.008ZM236.533 30.5859L235.377 30.2891L235.947 24.625H241.783V25.9609H237.173L236.83 29.0547C237.038 28.9349 237.301 28.8229 237.619 28.7188C237.942 28.6146 238.311 28.5625 238.728 28.5625C239.254 28.5625 239.726 28.6536 240.142 28.8359C240.559 29.013 240.913 29.2682 241.205 29.6016C241.502 29.9349 241.728 30.3359 241.884 30.8047C242.041 31.2734 242.119 31.7969 242.119 32.375C242.119 32.9219 242.043 33.4245 241.892 33.8828C241.746 34.3411 241.525 34.7422 241.228 35.0859C240.931 35.4245 240.556 35.6875 240.103 35.875C239.655 36.0625 239.127 36.1562 238.517 36.1562C238.059 36.1562 237.624 36.0938 237.212 35.9688C236.806 35.8385 236.442 35.6432 236.119 35.3828C235.801 35.1172 235.541 34.7891 235.337 34.3984C235.14 34.0026 235.015 33.5391 234.962 33.0078H236.337C236.4 33.4349 236.525 33.7943 236.712 34.0859C236.9 34.3776 237.145 34.599 237.447 34.75C237.754 34.8958 238.111 34.9688 238.517 34.9688C238.861 34.9688 239.166 34.9089 239.431 34.7891C239.697 34.6693 239.921 34.4974 240.103 34.2734C240.285 34.0495 240.423 33.7786 240.517 33.4609C240.616 33.1432 240.666 32.7865 240.666 32.3906C240.666 32.0312 240.616 31.6979 240.517 31.3906C240.418 31.0833 240.27 30.8151 240.072 30.5859C239.879 30.3568 239.642 30.1797 239.361 30.0547C239.08 29.9245 238.757 29.8594 238.392 29.8594C237.908 29.8594 237.541 29.9245 237.291 30.0547C237.046 30.1849 236.793 30.362 236.533 30.5859Z" fill="#4F4F4F"/>
<path d="M41.5 59.5H262" stroke="#BDBDBD"/>
<path fill-rule="evenodd" clip-rule="evenodd" d="M257.133 35.6894C257.091 35.6478 257.057 35.5984 257.035 35.544C257.012 35.4896 257 35.4313 257 35.3724C257 35.3135 257.012 35.2552 257.035 35.2008C257.057 35.1464 257.091 35.097 257.133 35.0554L262.245 29.9999L257.133 24.9444C257.048 24.8603 257 24.7463 257 24.6274C257 24.5085 257.048 24.3945 257.133 24.3104C257.218 24.2264 257.333 24.1791 257.453 24.1791C257.574 24.1791 257.689 24.2264 257.774 24.3104L263.206 29.6829C263.248 29.7245 263.281 29.7739 263.304 29.8283C263.327 29.8827 263.339 29.941 263.339 29.9999C263.339 30.0588 263.327 30.1171 263.304 30.1715C263.281 30.2259 263.248 30.2753 263.206 30.3169L257.774 35.6894C257.732 35.7311 257.682 35.7642 257.627 35.7867C257.572 35.8093 257.513 35.8209 257.453 35.8209C257.394 35.8209 257.335 35.8093 257.28 35.7867C257.225 35.7642 257.175 35.7311 257.133 35.6894Z" fill="#4F4F4F"/>
<g clip-path="url(#clip0_270_4860)">
<path fill-rule="evenodd" clip-rule="evenodd" d="M11.5 21.4375C10.9337 21.4375 10.3729 21.5491 9.84968 21.7658C9.32646 21.9825 8.85105 22.3002 8.4506 22.7006C8.05015 23.1011 7.73249 23.5765 7.51577 24.0997C7.29905 24.6229 7.1875 25.1837 7.1875 25.75C7.1875 26.3163 7.29905 26.8771 7.51577 27.4003C7.73249 27.9236 8.05015 28.399 8.4506 28.7994C8.85105 29.1999 9.32646 29.5175 9.84968 29.7342C10.3729 29.951 10.9337 30.0625 11.5 30.0625C12.6437 30.0625 13.7406 29.6082 14.5494 28.7994C15.3581 27.9907 15.8125 26.8938 15.8125 25.75C15.8125 24.6063 15.3581 23.5094 14.5494 22.7006C13.7406 21.8919 12.6437 21.4375 11.5 21.4375ZM5.75 25.75C5.7501 24.6435 6.06949 23.5604 6.66985 22.6309C7.2702 21.7014 8.12602 20.9648 9.1346 20.5096C10.1432 20.0544 11.2617 19.8999 12.3559 20.0646C13.4501 20.2293 14.4736 20.7063 15.3035 21.4382C16.1333 22.1702 16.7344 23.126 17.0345 24.1911C17.3346 25.2562 17.321 26.3853 16.9953 27.4428C16.6697 28.5003 16.0458 29.4415 15.1985 30.1532C14.3513 30.865 13.3166 31.3171 12.2188 31.4555V39.4063C12.2188 39.5969 12.143 39.7797 12.0082 39.9145C11.8734 40.0493 11.6906 40.125 11.5 40.125C11.3094 40.125 11.1266 40.0493 10.9918 39.9145C10.857 39.7797 10.7812 39.5969 10.7812 39.4063V31.4569C9.39114 31.2818 8.1128 30.6051 7.18637 29.554C6.25994 28.5029 5.74917 27.1497 5.75 25.7486V25.75ZM9.33369 38.0751C9.36486 38.2631 9.32014 38.4557 9.20936 38.6107C9.09857 38.7657 8.93079 38.8704 8.74287 38.9017C7.71937 39.0713 6.90287 39.3258 6.36381 39.6104C6.16579 39.7056 5.98582 39.8345 5.83194 39.9913C5.79715 40.0292 5.7694 40.073 5.75 40.1207V40.125L5.75287 40.1365C5.75853 40.1532 5.76626 40.1692 5.77588 40.184C5.83261 40.2671 5.9031 40.3401 5.98431 40.3996C6.2215 40.5865 6.60962 40.7877 7.153 40.9674C8.23256 41.3268 9.76925 41.5625 11.5 41.5625C13.2308 41.5625 14.7674 41.3282 15.847 40.9674C16.3904 40.7863 16.7785 40.5865 17.0157 40.3996C17.0974 40.3401 17.1684 40.2672 17.2256 40.184C17.2347 40.1691 17.2419 40.1532 17.2471 40.1365L17.25 40.125V40.1193C17.2306 40.0716 17.2028 40.0278 17.1681 39.9899C17.0141 39.8335 16.8341 39.7051 16.6362 39.6104C16.0957 39.3258 15.2806 39.0713 14.2571 38.9017C14.1618 38.8888 14.07 38.8569 13.9872 38.8078C13.9045 38.7588 13.8324 38.6936 13.7753 38.6162C13.7181 38.5388 13.6772 38.4507 13.6547 38.3571C13.6323 38.2635 13.6288 38.1664 13.6446 38.0715C13.6604 37.9766 13.6951 37.8859 13.7466 37.8046C13.7981 37.7233 13.8654 37.6533 13.9445 37.5985C14.0236 37.5437 14.1129 37.5054 14.2071 37.4858C14.3013 37.4662 14.3985 37.4657 14.4929 37.4843C15.5997 37.6669 16.5801 37.9558 17.3061 38.3382C17.9687 38.6875 18.6875 39.2625 18.6875 40.125C18.6875 40.7374 18.3138 41.206 17.9055 41.5295C17.4886 41.8572 16.928 42.1231 16.3013 42.3316C15.0391 42.7528 13.3414 43 11.5 43C9.65856 43 7.96087 42.7528 6.69875 42.3316C6.072 42.1231 5.51137 41.8572 5.0945 41.5295C4.68625 41.206 4.3125 40.7374 4.3125 40.125C4.3125 39.264 5.03125 38.6875 5.69394 38.3382C6.41987 37.9558 7.40025 37.6669 8.50713 37.4843C8.69507 37.4532 8.8877 37.4979 9.04269 37.6087C9.19768 37.7194 9.30234 37.8872 9.33369 38.0751Z" fill="#4F4F4F"/>
</g>
<defs>
<clipPath id="clip0_270_4860">
<rect width="23" height="23" fill="white" transform="translate(0 20)"/>
</clipPath>
</defs>
</svg>
