<svg width="17" height="17" viewBox="0 0 17 17" fill="none" xmlns="http://www.w3.org/2000/svg">
<g clip-path="url(#clip0_78_3537)">
<path d="M14.875 0H2.125C1.56141 0 1.02091 0.223883 0.622398 0.622398C0.223883 1.02091 0 1.56141 0 2.125L0 14.875C0 15.4386 0.223883 15.9791 0.622398 16.3776C1.02091 16.7761 1.56141 17 2.125 17H14.875C15.4386 17 15.9791 16.7761 16.3776 16.3776C16.7761 15.9791 17 15.4386 17 14.875V2.125C17 1.56141 16.7761 1.02091 16.3776 0.622398C15.9791 0.223883 15.4386 0 14.875 0V0ZM1.0625 4.09806C1.0625 3.5955 1.5385 3.1875 2.125 3.1875H14.875C15.4615 3.1875 15.9375 3.5955 15.9375 4.09806V15.0269C15.9375 15.5295 15.4615 15.9375 14.875 15.9375H2.125C1.5385 15.9375 1.0625 15.5295 1.0625 15.0269V4.09806Z" fill="#4F4F4F"/>
<path d="M6.90625 7.4375C7.18804 7.4375 7.45829 7.32556 7.65755 7.1263C7.85681 6.92704 7.96875 6.65679 7.96875 6.375C7.96875 6.09321 7.85681 5.82296 7.65755 5.6237C7.45829 5.42444 7.18804 5.3125 6.90625 5.3125C6.62446 5.3125 6.35421 5.42444 6.15495 5.6237C5.95569 5.82296 5.84375 6.09321 5.84375 6.375C5.84375 6.65679 5.95569 6.92704 6.15495 7.1263C6.35421 7.32556 6.62446 7.4375 6.90625 7.4375ZM10.0938 7.4375C10.3755 7.4375 10.6458 7.32556 10.8451 7.1263C11.0443 6.92704 11.1562 6.65679 11.1562 6.375C11.1562 6.09321 11.0443 5.82296 10.8451 5.6237C10.6458 5.42444 10.3755 5.3125 10.0938 5.3125C9.81196 5.3125 9.54171 5.42444 9.34245 5.6237C9.14319 5.82296 9.03125 6.09321 9.03125 6.375C9.03125 6.65679 9.14319 6.92704 9.34245 7.1263C9.54171 7.32556 9.81196 7.4375 10.0938 7.4375ZM13.2812 7.4375C13.563 7.4375 13.8333 7.32556 14.0326 7.1263C14.2318 6.92704 14.3438 6.65679 14.3438 6.375C14.3438 6.09321 14.2318 5.82296 14.0326 5.6237C13.8333 5.42444 13.563 5.3125 13.2812 5.3125C12.9995 5.3125 12.7292 5.42444 12.5299 5.6237C12.3307 5.82296 12.2188 6.09321 12.2188 6.375C12.2188 6.65679 12.3307 6.92704 12.5299 7.1263C12.7292 7.32556 12.9995 7.4375 13.2812 7.4375ZM3.71875 10.625C4.00054 10.625 4.27079 10.5131 4.47005 10.3138C4.66931 10.1145 4.78125 9.84429 4.78125 9.5625C4.78125 9.28071 4.66931 9.01046 4.47005 8.8112C4.27079 8.61194 4.00054 8.5 3.71875 8.5C3.43696 8.5 3.16671 8.61194 2.96745 8.8112C2.76819 9.01046 2.65625 9.28071 2.65625 9.5625C2.65625 9.84429 2.76819 10.1145 2.96745 10.3138C3.16671 10.5131 3.43696 10.625 3.71875 10.625ZM6.90625 10.625C7.18804 10.625 7.45829 10.5131 7.65755 10.3138C7.85681 10.1145 7.96875 9.84429 7.96875 9.5625C7.96875 9.28071 7.85681 9.01046 7.65755 8.8112C7.45829 8.61194 7.18804 8.5 6.90625 8.5C6.62446 8.5 6.35421 8.61194 6.15495 8.8112C5.95569 9.01046 5.84375 9.28071 5.84375 9.5625C5.84375 9.84429 5.95569 10.1145 6.15495 10.3138C6.35421 10.5131 6.62446 10.625 6.90625 10.625ZM10.0938 10.625C10.3755 10.625 10.6458 10.5131 10.8451 10.3138C11.0443 10.1145 11.1562 9.84429 11.1562 9.5625C11.1562 9.28071 11.0443 9.01046 10.8451 8.8112C10.6458 8.61194 10.3755 8.5 10.0938 8.5C9.81196 8.5 9.54171 8.61194 9.34245 8.8112C9.14319 9.01046 9.03125 9.28071 9.03125 9.5625C9.03125 9.84429 9.14319 10.1145 9.34245 10.3138C9.54171 10.5131 9.81196 10.625 10.0938 10.625ZM13.2812 10.625C13.563 10.625 13.8333 10.5131 14.0326 10.3138C14.2318 10.1145 14.3438 9.84429 14.3438 9.5625C14.3438 9.28071 14.2318 9.01046 14.0326 8.8112C13.8333 8.61194 13.563 8.5 13.2812 8.5C12.9995 8.5 12.7292 8.61194 12.5299 8.8112C12.3307 9.01046 12.2188 9.28071 12.2188 9.5625C12.2188 9.84429 12.3307 10.1145 12.5299 10.3138C12.7292 10.5131 12.9995 10.625 13.2812 10.625ZM3.71875 13.8125C4.00054 13.8125 4.27079 13.7006 4.47005 13.5013C4.66931 13.302 4.78125 13.0318 4.78125 12.75C4.78125 12.4682 4.66931 12.198 4.47005 11.9987C4.27079 11.7994 4.00054 11.6875 3.71875 11.6875C3.43696 11.6875 3.16671 11.7994 2.96745 11.9987C2.76819 12.198 2.65625 12.4682 2.65625 12.75C2.65625 13.0318 2.76819 13.302 2.96745 13.5013C3.16671 13.7006 3.43696 13.8125 3.71875 13.8125ZM6.90625 13.8125C7.18804 13.8125 7.45829 13.7006 7.65755 13.5013C7.85681 13.302 7.96875 13.0318 7.96875 12.75C7.96875 12.4682 7.85681 12.198 7.65755 11.9987C7.45829 11.7994 7.18804 11.6875 6.90625 11.6875C6.62446 11.6875 6.35421 11.7994 6.15495 11.9987C5.95569 12.198 5.84375 12.4682 5.84375 12.75C5.84375 13.0318 5.95569 13.302 6.15495 13.5013C6.35421 13.7006 6.62446 13.8125 6.90625 13.8125ZM10.0938 13.8125C10.3755 13.8125 10.6458 13.7006 10.8451 13.5013C11.0443 13.302 11.1562 13.0318 11.1562 12.75C11.1562 12.4682 11.0443 12.198 10.8451 11.9987C10.6458 11.7994 10.3755 11.6875 10.0938 11.6875C9.81196 11.6875 9.54171 11.7994 9.34245 11.9987C9.14319 12.198 9.03125 12.4682 9.03125 12.75C9.03125 13.0318 9.14319 13.302 9.34245 13.5013C9.54171 13.7006 9.81196 13.8125 10.0938 13.8125Z" fill="#4F4F4F"/>
</g>
<defs>
<clipPath id="clip0_78_3537">
<rect width="17" height="17" fill="white"/>
</clipPath>
</defs>
</svg>
