<svg width="21" height="21" viewBox="0 0 21 21" fill="none" xmlns="http://www.w3.org/2000/svg">
<g clip-path="url(#clip0_759_2744)">
<path d="M18.375 1.3125C18.7231 1.3125 19.0569 1.45078 19.3031 1.69692C19.5492 1.94306 19.6875 2.2769 19.6875 2.625V18.375C19.6875 18.7231 19.5492 19.0569 19.3031 19.3031C19.0569 19.5492 18.7231 19.6875 18.375 19.6875H2.625C2.2769 19.6875 1.94306 19.5492 1.69692 19.3031C1.45078 19.0569 1.3125 18.7231 1.3125 18.375V2.625C1.3125 2.2769 1.45078 1.94306 1.69692 1.69692C1.94306 1.45078 2.2769 1.3125 2.625 1.3125H18.375ZM2.625 0C1.92881 0 1.26113 0.276562 0.768845 0.768845C0.276562 1.26113 0 1.92881 0 2.625L0 18.375C0 19.0712 0.276562 19.7389 0.768845 20.2312C1.26113 20.7234 1.92881 21 2.625 21H18.375C19.0712 21 19.7389 20.7234 20.2312 20.2312C20.7234 19.7389 21 19.0712 21 18.375V2.625C21 1.92881 20.7234 1.26113 20.2312 0.768845C19.7389 0.276562 19.0712 0 18.375 0L2.625 0Z" fill="#BDBDBD"/>
<path d="M11.7206 8.64675L8.715 9.02344L8.60737 9.52219L9.198 9.63112C9.58387 9.723 9.66 9.86213 9.576 10.2467L8.60737 14.7984C8.35275 15.9757 8.74519 16.5296 9.66787 16.5296C10.3832 16.5296 11.214 16.1989 11.5907 15.7448L11.7062 15.1987C11.4437 15.4297 11.0604 15.5216 10.8058 15.5216C10.4449 15.5216 10.3136 15.2683 10.4068 14.8221L11.7206 8.64675ZM11.8125 5.90625C11.8125 6.25435 11.6742 6.58819 11.4281 6.83433C11.1819 7.08047 10.8481 7.21875 10.5 7.21875C10.1519 7.21875 9.81806 7.08047 9.57192 6.83433C9.32578 6.58819 9.1875 6.25435 9.1875 5.90625C9.1875 5.55815 9.32578 5.22431 9.57192 4.97817C9.81806 4.73203 10.1519 4.59375 10.5 4.59375C10.8481 4.59375 11.1819 4.73203 11.4281 4.97817C11.6742 5.22431 11.8125 5.55815 11.8125 5.90625Z" fill="#BDBDBD"/>
</g>
<defs>
<clipPath id="clip0_759_2744">
<rect width="21" height="21" fill="white"/>
</clipPath>
</defs>
</svg>
