<svg width="23" height="23" viewBox="0 0 23 23" fill="none" xmlns="http://www.w3.org/2000/svg">
<path fill-rule="evenodd" clip-rule="evenodd" d="M2.875 19.4062V10.0625H4.3125V19.4062C4.3125 19.5969 4.38823 19.7797 4.52302 19.9145C4.65781 20.0493 4.84063 20.125 5.03125 20.125H17.9688C18.1594 20.125 18.3422 20.0493 18.477 19.9145C18.6118 19.7797 18.6875 19.5969 18.6875 19.4062V10.0625H20.125V19.4062C20.125 19.9781 19.8978 20.5266 19.4935 20.931C19.0891 21.3353 18.5406 21.5625 17.9688 21.5625H5.03125C4.45938 21.5625 3.91093 21.3353 3.50655 20.931C3.10218 20.5266 2.875 19.9781 2.875 19.4062ZM18.6875 3.59375V8.625L15.8125 5.75V3.59375C15.8125 3.40313 15.8882 3.22031 16.023 3.08552C16.1578 2.95073 16.3406 2.875 16.5312 2.875H17.9688C18.1594 2.875 18.3422 2.95073 18.477 3.08552C18.6118 3.22031 18.6875 3.40313 18.6875 3.59375Z" fill="#4F4F4F"/>
<path fill-rule="evenodd" clip-rule="evenodd" d="M10.4836 2.15625C10.7532 1.88676 11.1188 1.73537 11.4999 1.73537C11.8811 1.73537 12.2467 1.88676 12.5162 2.15625L22.0713 11.7099C22.2063 11.8448 22.2821 12.0279 22.2821 12.2187C22.2821 12.4096 22.2063 12.5927 22.0713 12.7276C21.9363 12.8626 21.7533 12.9384 21.5624 12.9384C21.3716 12.9384 21.1885 12.8626 21.0536 12.7276L11.4999 3.17256L1.94631 12.7276C1.81134 12.8626 1.6283 12.9384 1.43743 12.9384C1.24657 12.9384 1.06352 12.8626 0.928556 12.7276C0.793594 12.5927 0.717773 12.4096 0.717773 12.2187C0.717773 12.0279 0.793594 11.8448 0.928556 11.7099L10.4836 2.15625Z" fill="#4F4F4F"/>
</svg>
