<svg width="261" height="60" viewBox="0 0 261 60" fill="none" xmlns="http://www.w3.org/2000/svg">
<path d="M41.6953 24.5625V36H40.25V26.3672L37.3359 27.4297V26.125L41.4688 24.5625H41.6953ZM53.2359 29.4062V31.1406C53.2359 32.0729 53.1526 32.8594 52.9859 33.5C52.8193 34.1406 52.5797 34.6562 52.2672 35.0469C51.9547 35.4375 51.5771 35.7214 51.1344 35.8984C50.6969 36.0703 50.2021 36.1562 49.65 36.1562C49.2125 36.1562 48.8089 36.1016 48.4391 35.9922C48.0693 35.8828 47.7359 35.7083 47.4391 35.4688C47.1474 35.224 46.8974 34.9062 46.6891 34.5156C46.4807 34.125 46.3219 33.651 46.2125 33.0938C46.1031 32.5365 46.0484 31.8854 46.0484 31.1406V29.4062C46.0484 28.474 46.1318 27.6927 46.2984 27.0625C46.4703 26.4323 46.7125 25.9271 47.025 25.5469C47.3375 25.1615 47.7125 24.8854 48.15 24.7188C48.5927 24.5521 49.0875 24.4688 49.6344 24.4688C50.0771 24.4688 50.4833 24.5234 50.8531 24.6328C51.2281 24.737 51.5615 24.9062 51.8531 25.1406C52.1448 25.3698 52.3922 25.6771 52.5953 26.0625C52.8036 26.4427 52.9625 26.9089 53.0719 27.4609C53.1812 28.013 53.2359 28.6615 53.2359 29.4062ZM51.7828 31.375V29.1641C51.7828 28.6536 51.7516 28.2057 51.6891 27.8203C51.6318 27.4297 51.5458 27.0964 51.4312 26.8203C51.3167 26.5443 51.1708 26.3203 50.9937 26.1484C50.8219 25.9766 50.6214 25.8516 50.3922 25.7734C50.1682 25.6901 49.9156 25.6484 49.6344 25.6484C49.2906 25.6484 48.9859 25.7135 48.7203 25.8438C48.4547 25.9688 48.2307 26.1693 48.0484 26.4453C47.8714 26.7214 47.7359 27.0833 47.6422 27.5312C47.5484 27.9792 47.5016 28.5234 47.5016 29.1641V31.375C47.5016 31.8854 47.5302 32.3359 47.5875 32.7266C47.65 33.1172 47.7411 33.4557 47.8609 33.7422C47.9807 34.0234 48.1266 34.2552 48.2984 34.4375C48.4703 34.6198 48.6682 34.7552 48.8922 34.8438C49.1214 34.9271 49.374 34.9688 49.65 34.9688C50.0042 34.9688 50.3141 34.901 50.5797 34.7656C50.8453 34.6302 51.0667 34.4193 51.2437 34.1328C51.426 33.8411 51.5615 33.4688 51.65 33.0156C51.7385 32.5573 51.7828 32.0104 51.7828 31.375ZM55.3391 35.2344C55.3391 34.9896 55.4146 34.7839 55.5656 34.6172C55.7219 34.4453 55.9458 34.3594 56.2375 34.3594C56.5292 34.3594 56.7505 34.4453 56.9016 34.6172C57.0578 34.7839 57.1359 34.9896 57.1359 35.2344C57.1359 35.474 57.0578 35.6771 56.9016 35.8438C56.7505 36.0104 56.5292 36.0938 56.2375 36.0938C55.9458 36.0938 55.7219 36.0104 55.5656 35.8438C55.4146 35.6771 55.3391 35.474 55.3391 35.2344ZM55.3469 28.3359C55.3469 28.0911 55.4224 27.8854 55.5734 27.7188C55.7297 27.5469 55.9536 27.4609 56.2453 27.4609C56.537 27.4609 56.7583 27.5469 56.9094 27.7188C57.0656 27.8854 57.1437 28.0911 57.1437 28.3359C57.1437 28.5755 57.0656 28.7786 56.9094 28.9453C56.7583 29.112 56.537 29.1953 56.2453 29.1953C55.9536 29.1953 55.7297 29.112 55.5734 28.9453C55.4224 28.7786 55.3469 28.5755 55.3469 28.3359ZM66.4109 29.4062V31.1406C66.4109 32.0729 66.3276 32.8594 66.1609 33.5C65.9943 34.1406 65.7547 34.6562 65.4422 35.0469C65.1297 35.4375 64.7521 35.7214 64.3094 35.8984C63.8719 36.0703 63.3771 36.1562 62.825 36.1562C62.3875 36.1562 61.9839 36.1016 61.6141 35.9922C61.2443 35.8828 60.9109 35.7083 60.6141 35.4688C60.3224 35.224 60.0724 34.9062 59.8641 34.5156C59.6557 34.125 59.4969 33.651 59.3875 33.0938C59.2781 32.5365 59.2234 31.8854 59.2234 31.1406V29.4062C59.2234 28.474 59.3068 27.6927 59.4734 27.0625C59.6453 26.4323 59.8875 25.9271 60.2 25.5469C60.5125 25.1615 60.8875 24.8854 61.325 24.7188C61.7677 24.5521 62.2625 24.4688 62.8094 24.4688C63.2521 24.4688 63.6583 24.5234 64.0281 24.6328C64.4031 24.737 64.7365 24.9062 65.0281 25.1406C65.3198 25.3698 65.5672 25.6771 65.7703 26.0625C65.9786 26.4427 66.1375 26.9089 66.2469 27.4609C66.3563 28.013 66.4109 28.6615 66.4109 29.4062ZM64.9578 31.375V29.1641C64.9578 28.6536 64.9266 28.2057 64.8641 27.8203C64.8068 27.4297 64.7208 27.0964 64.6063 26.8203C64.4917 26.5443 64.3458 26.3203 64.1688 26.1484C63.9969 25.9766 63.7964 25.8516 63.5672 25.7734C63.3432 25.6901 63.0906 25.6484 62.8094 25.6484C62.4656 25.6484 62.1609 25.7135 61.8953 25.8438C61.6297 25.9688 61.4057 26.1693 61.2234 26.4453C61.0464 26.7214 60.9109 27.0833 60.8172 27.5312C60.7234 27.9792 60.6766 28.5234 60.6766 29.1641V31.375C60.6766 31.8854 60.7052 32.3359 60.7625 32.7266C60.825 33.1172 60.9161 33.4557 61.0359 33.7422C61.1557 34.0234 61.3016 34.2552 61.4734 34.4375C61.6453 34.6198 61.8432 34.7552 62.0672 34.8438C62.2964 34.9271 62.549 34.9688 62.825 34.9688C63.1792 34.9688 63.4891 34.901 63.7547 34.7656C64.0203 34.6302 64.2417 34.4193 64.4188 34.1328C64.601 33.8411 64.7365 33.4688 64.825 33.0156C64.9135 32.5573 64.9578 32.0104 64.9578 31.375ZM75.5609 29.4062V31.1406C75.5609 32.0729 75.4776 32.8594 75.3109 33.5C75.1443 34.1406 74.9047 34.6562 74.5922 35.0469C74.2797 35.4375 73.9021 35.7214 73.4594 35.8984C73.0219 36.0703 72.5271 36.1562 71.975 36.1562C71.5375 36.1562 71.1339 36.1016 70.7641 35.9922C70.3943 35.8828 70.0609 35.7083 69.7641 35.4688C69.4724 35.224 69.2224 34.9062 69.0141 34.5156C68.8057 34.125 68.6469 33.651 68.5375 33.0938C68.4281 32.5365 68.3734 31.8854 68.3734 31.1406V29.4062C68.3734 28.474 68.4568 27.6927 68.6234 27.0625C68.7953 26.4323 69.0375 25.9271 69.35 25.5469C69.6625 25.1615 70.0375 24.8854 70.475 24.7188C70.9177 24.5521 71.4125 24.4688 71.9594 24.4688C72.4021 24.4688 72.8083 24.5234 73.1781 24.6328C73.5531 24.737 73.8865 24.9062 74.1781 25.1406C74.4698 25.3698 74.7172 25.6771 74.9203 26.0625C75.1286 26.4427 75.2875 26.9089 75.3969 27.4609C75.5063 28.013 75.5609 28.6615 75.5609 29.4062ZM74.1078 31.375V29.1641C74.1078 28.6536 74.0766 28.2057 74.0141 27.8203C73.9568 27.4297 73.8708 27.0964 73.7563 26.8203C73.6417 26.5443 73.4958 26.3203 73.3188 26.1484C73.1469 25.9766 72.9464 25.8516 72.7172 25.7734C72.4932 25.6901 72.2406 25.6484 71.9594 25.6484C71.6156 25.6484 71.3109 25.7135 71.0453 25.8438C70.7797 25.9688 70.5557 26.1693 70.3734 26.4453C70.1964 26.7214 70.0609 27.0833 69.9672 27.5312C69.8734 27.9792 69.8266 28.5234 69.8266 29.1641V31.375C69.8266 31.8854 69.8552 32.3359 69.9125 32.7266C69.975 33.1172 70.0661 33.4557 70.1859 33.7422C70.3057 34.0234 70.4516 34.2552 70.6234 34.4375C70.7953 34.6198 70.9932 34.7552 71.2172 34.8438C71.4464 34.9271 71.699 34.9688 71.975 34.9688C72.3292 34.9688 72.6391 34.901 72.9047 34.7656C73.1703 34.6302 73.3917 34.4193 73.5688 34.1328C73.751 33.8411 73.8865 33.4688 73.975 33.0156C74.0635 32.5573 74.1078 32.0104 74.1078 31.375Z" fill="#4F4F4F"/>
<path d="M38.5 59.5H259" stroke="#BDBDBD"/>
<path fill-rule="evenodd" clip-rule="evenodd" d="M254.133 35.6893C254.091 35.6477 254.057 35.5983 254.035 35.5439C254.012 35.4895 254 35.4312 254 35.3723C254 35.3134 254.012 35.2551 254.035 35.2007C254.057 35.1463 254.091 35.0969 254.133 35.0553L259.245 29.9998L254.133 24.9443C254.048 24.8602 254 24.7462 254 24.6273C254 24.5084 254.048 24.3944 254.133 24.3103C254.218 24.2262 254.333 24.179 254.453 24.179C254.574 24.179 254.689 24.2262 254.774 24.3103L260.206 29.6828C260.248 29.7244 260.281 29.7738 260.304 29.8282C260.327 29.8826 260.339 29.9409 260.339 29.9998C260.339 30.0587 260.327 30.117 260.304 30.1714C260.281 30.2258 260.248 30.2752 260.206 30.3168L254.774 35.6893C254.732 35.731 254.682 35.764 254.627 35.7866C254.572 35.8092 254.513 35.8208 254.453 35.8208C254.394 35.8208 254.335 35.8092 254.28 35.7866C254.225 35.764 254.175 35.731 254.133 35.6893Z" fill="#4F4F4F"/>
<g clip-path="url(#clip0_266_4683)">
<path d="M11 22.8125C11 22.6302 10.9276 22.4553 10.7986 22.3264C10.6697 22.1974 10.4948 22.125 10.3125 22.125C10.1302 22.125 9.9553 22.1974 9.82636 22.3264C9.69743 22.4553 9.625 22.6302 9.625 22.8125V30.375C9.62504 30.4962 9.65711 30.6152 9.71796 30.72C9.77881 30.8248 9.86628 30.9116 9.9715 30.9718L14.784 33.7218C14.9419 33.8071 15.127 33.8273 15.2996 33.778C15.4722 33.7287 15.6187 33.6139 15.7078 33.458C15.7969 33.3022 15.8214 33.1176 15.7762 32.9439C15.7311 32.7702 15.6197 32.621 15.466 32.5282L11 29.9763V22.8125Z" fill="#4F4F4F"/>
<path d="M11 40C13.9174 40 16.7153 38.8411 18.7782 36.7782C20.8411 34.7153 22 31.9174 22 29C22 26.0826 20.8411 23.2847 18.7782 21.2218C16.7153 19.1589 13.9174 18 11 18C8.08262 18 5.28473 19.1589 3.22183 21.2218C1.15893 23.2847 0 26.0826 0 29C0 31.9174 1.15893 34.7153 3.22183 36.7782C5.28473 38.8411 8.08262 40 11 40ZM20.625 29C20.625 31.5527 19.6109 34.0009 17.8059 35.8059C16.0009 37.6109 13.5527 38.625 11 38.625C8.44729 38.625 5.99913 37.6109 4.1941 35.8059C2.38906 34.0009 1.375 31.5527 1.375 29C1.375 26.4473 2.38906 23.9991 4.1941 22.1941C5.99913 20.3891 8.44729 19.375 11 19.375C13.5527 19.375 16.0009 20.3891 17.8059 22.1941C19.6109 23.9991 20.625 26.4473 20.625 29Z" fill="#4F4F4F"/>
</g>
<defs>
<clipPath id="clip0_266_4683">
<rect width="22" height="22" fill="white" transform="translate(0 18)"/>
</clipPath>
</defs>
</svg>
